<?xml version="1.0" encoding="UTF-8"?>
<svg xmlns="http://www.w3.org/2000/svg" width="151.4" height="89.7" viewBox="0 0 1514 897">
	<title>Berlin-Brandenburg transit icons - U-Bahn Linie U0</title>
	<path fill="#da6ba2" d="M0,0h1514v897H0z"/>
	<path fill="#fff" d="M746,534q0 66-18 113t-52.5 76.5t-84.5 43.5t-113 14t-113-14t-84.5-43.5t-52.5-76.5t-18-113v-419h131v379q0 42 7 76.5t23.5 59t42.5 37.5t64 13q37 0 63-13t42-37.5t23-59t7-76.5v-379h133v419zM894.8,446.9c0-164.3,49.8-340.9,227.3-340.9s229.1,188.8,229.1,340.9-39.4,337.1-229.1,337.1-227.3-200-227.3-337.1Zm324.9,0c0-84.5,0-243.2-97.7-243.2s-95.8,158.7-95.8,243.2-.9,239.5,95.8,239.5,97.7-156.8,97.7-239.5Z" />
</svg>