<?xml version="1.0" encoding="UTF-8"?>
<svg xmlns="http://www.w3.org/2000/svg" width="151.4" height="89.7" viewBox="0 0 1514 897">
	<title>Berlin-Brandenburg transit icons - U-Bahn Linie U10</title>
	<path fill="#808080" d="M0,0h1514v897H0z"/>
	<path fill="#fff" d="M556,535q0 60-16 103t-44.5 70.5t-68 40t-86.5 12.5q-48 0-87.5-12.5t-68.5-40t-45-70.5t-16-103v-382h116v345q0 78 22 123.5t79 45.5q56 0 77-45.5t21-123.5v-345h117v382zM909,754h-116v-470l-76 79l-55-82l151-128h96v601zM1388,449q0 155-48 233.5t-142 78.5q-93 0-140.5-78.5t-47.5-233.5q0-151 49.5-228t145.5-77q89 0 136 76.5t47 228.5zM1275,456q0-118-17-173t-59-55q-24 0-39 19t-23 51t-11 74t-3 88q0 115 20 165.5t54 50.5q41 0 59.5-54t18.5-166z"/>
</svg>