<?xml version="1.0" encoding="UTF-8"?>
<svg xmlns="http://www.w3.org/2000/svg" width="151.4" height="89.7" viewBox="0 0 1514 897">
	<title>Berlin-Brandenburg transit icons - U-Bahn Linie U11</title>
	<path fill="#808080" d="M0,0h1514v897H0z"/>
	<path fill="#fff" d="M581,535q0 60-16 103t-44.5 70.5t-68 40t-87.5 12.5q-47 0-87-12.5t-68.5-40t-44.5-70.5t-16-103v-382h116v345q0 78 21.5 123.5t78.5 45.5q56 0 77-45.5t21-123.5v-345h118v382zM933,754h-115v-470l-76 79l-56-82l152-128h95v601zM1287,754h-115v-470l-77 79l-55-82l153-128h94v601z"/>
</svg>