<?xml version="1.0" encoding="UTF-8"?>
<svg xmlns="http://www.w3.org/2000/svg" width="151.4" height="89.7" viewBox="0 0 1514 897">
	<title>Berlin-Brandenburg transit icons - U-Bahn Linie U35</title>
	<path fill="#16683d" d="M0,0h1514v897H0z"/>
	<path fill="#FFF" d="M523 535q0 60-16 103t-44.5 70.5t-68 40t-87.5 12.5q-47 0-87-12.5t-68.5-40t-44.5-70.5t-16-103v-382h116v345q0 78 21.5 123.5t78.5 45.5q56 0 77-45.5t21-123.5v-345h118v382zM963 573q0 43-16.5 77.5t-45.5 59t-68.5 37.5t-85.5 13q-39 0-76-6.5t-63-19.5l4-96q38 17 65.5 23t55.5 6q51 0 81.5-26.5t30.5-68.5q0-86-118-86h-42v-85h24q63 0 96-26t33-71q0-32-24.5-54t-66.5-22q-32 0-63 8.5t-54 21.5l-8-89q36-12 71-18.5t73-6.5q52 0 87.5 13t58 34t32.5 48t10 56q0 112-111 141q27 2 49 13.5t38 30t24.5 42.5t8.5 51zM1418,553q0 45-16 83t-44.5 65.5t-68 43t-87.5 15.5q-73 0-132-26l7-94q35 15 59 21t49 6q53 0 84.5-30t31.5-82q0-48-33-77.5t-92-29.5q-47 0-95 15v-310h307v93h-206v123q15-4 30-5t30-1q39 0 71.5 13.5t56 38.5t36 60t12.5 78z"/>
</svg>