<?xml version="1.0" encoding="UTF-8"?>
<svg xmlns="http://www.w3.org/2000/svg" width="151.4" height="89.7" viewBox="0 0 1514 897">
	<title>Berlin-Brandenburg transit icons - U-Bahn Linie U55</title>
	<path fill="#7e5330" d="M0,0h1514v897H0z"/>
	<path fill="#fff" d="M523,535q0 60-16 103t-44.5 70.5t-68 40t-87.5 12.5q-47 0-87-12.5t-68.5-40t-44.5-70.5t-16-103v-382h116v345q0 78 21.5 123.5t78.5 45.5q56 0 77-45.5t21-123.5v-345h118v382zM973,553q0 45-16 83t-44.5 65.5t-68 43t-87.5 15.5q-73 0-132-26l7-94q35 15 59 21t49 6q53 0 84.5-30t31.5-82q0-48-33-77.5t-92-29.5q-47 0-95 15v-310h307v93h-206v123q15-4 30-5t30-1q39 0 71.5 13.5t56 38.5t36 60t12.5 78zM1418,553q0 45-16 83t-44.5 65.5t-68 43t-87.5 15.5q-73 0-132-26l7-94q35 15 59 21t49 6q53 0 84.5-30t31.5-82q0-48-33-77.5t-92-29.5q-47 0-95 15v-310h307v93h-206v123q15-4 30-5t30-1q39 0 71.5 13.5t56 38.5t36 60t12.5 78z"/>
</svg>