<?xml version="1.0" encoding="UTF-8"?>
<svg xmlns="http://www.w3.org/2000/svg" width="179.7" height="89.7" viewBox="0 0 1797 897">
	<title>Berlin-Brandenburg transit icons - S-Bahn Linie S10</title>
	<rect fill="#0082c4" width="1797" height="897" rx="448.5"/>
	<path fill="#fff" d="M614,576q0-46-17.5-77t-43-51.5t-56-35t-56-28.5t-43-31t-17.5-44q0-37 24-57t63-20q28 0 54.5 6.5t57.5 20.5l3-93q-35-11-68.5-16.5t-64.5-5.5q-44 0-79.5 13t-60.5 36t-38.5 54.5t-13.5 68.5q0 48 17 78t43 49.5t55.5 32.5t55.5 27t43 32.5t17 49.5q0 36-25 57.5t-68 21.5q-63 0-123-32l-6 102q38 15 71.5 20.5t66.5 5.5q48 0 87-14.5t66-39.5t41.5-58.5t14.5-71.5zM1042,153h-95l-154 128l58 82l77-79v470h114v-601zM1581,449q0-152-47-228.5t-136-76.5q-96 0-145.5 77t-49.5 228q0 155 47.5 233.5t140.5 78.5q94 0 142-78.5t48-233.5zM1468,456q0 112-18.5 166t-59.5 54q-34 0-54-50.5t-20-165.5q0-46 3-88t11-74t23-51t39-19q42 0 59 55t17 173z"/>
</svg>