<?xml version="1.0" encoding="UTF-8"?>
<svg xmlns="http://www.w3.org/2000/svg" width="179.7" height="89.7" viewBox="0 0 1797 897">
	<title>Berlin-Brandenburg transit icons - S-Bahn Linie S19</title>
	<rect fill="#0082c4" width="1797" height="897" rx="448.5"/>
	<path fill="#fff" d="M614,576q0-46-17.5-77t-43-51.5t-56-35t-56-28.5t-43-31t-17.5-44q0-37 24-57t63-20q28 0 54.5 6.5t57.5 20.5l3-93q-35-11-68.5-16.5t-64.5-5.5q-44 0-79.5 13t-60.5 36t-38.5 54.5t-13.5 68.5q0 48 17 78t43 49.5t55.5 32.5t55.5 27t43 32.5t17 49.5q0 36-25 57.5t-68 21.5q-63 0-123-32l-6 102q38 15 71.5 20.5t66.5 5.5q48 0 87-14.5t66-39.5t41.5-58.5t14.5-71.5zM1042,153h-95l-154 128l58 82l77-79v470h114v-601zM1581,400q0-128-48-192t-154-64q-38 0-70.5 14t-56.5 39.5t-38 62.5t-14 82q0 97 42.5 146t118.5 49q36 0 59-7.5t38-25.5q0 77-32.5 122t-98.5 45q-23 0-44-5t-51-18l-7 95q27 9 54 13.5t59 4.5q57 0 102-20t76.5-63t48-111.5t16.5-166.5zM1462,340q0 51-20.5 81.5t-52.5 30.5q-35 0-55.5-30t-20.5-78q0-51 19.5-81.5t54.5-30.5t55 27.5t20 80.5z"/>
</svg>