<?xml version="1.0" encoding="UTF-8"?>
<svg xmlns="http://www.w3.org/2000/svg" width="179.7" height="89.7" viewBox="0 0 1797 897">
	<title>Berlin-Brandenburg transit icons - S-Bahn Linie S35</title>
	<rect fill="#0066ad" width="1797" height="897" rx="448.5"/>
	<path fill="#fff" d="M614,576q0-46-17.5-77t-43-51.5t-56-35t-56-28.5t-43-31t-17.5-44q0-37 24-57t63-20q28 0 54.5 6.5t57.5 20.5l3-93q-35-11-68.5-16.5t-64.5-5.5q-44 0-79.5 13t-60.5 36t-38.5 54.5t-13.5 68.5q0 48 17 78t43 49.5t55.5 32.5t55.5 27t43 32.5t17 49.5q0 36-25 57.5t-68 21.5q-63 0-123-32l-6 102q38 15 71.5 20.5t66.5 5.5q48 0 87-14.5t66-39.5t41.5-58.5t14.5-71.5zM1125,573q0-27-8.5-51t-24.5-42.5t-38-30t-49-13.5q111-29 111-141q0-29-10-56t-32.5-48t-58-34t-87.5-13q-38 0-73 6.5t-71 18.5l8 89q23-13 54-21.5t63-8.5q42 0 66.5 22t24.5 54q0 45-33 71t-96 26h-24v85h42q118 0 118 86q0 42-30.5 68.5t-81.5 26.5q-28 0-55.5-6t-65.5-23l-4 96q26 13 63 19.5t76 6.5q46 0 85.5-13t68.5-37.5t45.5-59t16.5-77.5zM1575,553q0-43-12.5-78t-36-60t-56-38.5t-71.5-13.5q-15 0-30 1t-30 5v-123h206v-93h-307v310q48-15 95-15q59 0 92 29.5t33 77.5q0 52-31.5 82t-84.5 30q-25 0-49-6t-59-21l-7 94q59 26 132 26q48 0 87.5-15.5t68-43t44.5-65.5t16-83z"/>
</svg>
