<?xml version="1.0" encoding="UTF-8"?>
<svg xmlns="http://www.w3.org/2000/svg" width="179.7" height="89.7" viewBox="0 0 1797 897">
	<title>Berlin-Brandenburg transit icons - S-Bahn Linie S6</title>
	<rect fill="#cd9c53" width="1797" height="897" rx="448.5"/>
	<path fill="#fff" d="M795,582q0-55-21.5-89.5t-53-57t-69-36.5t-69-28t-53-32t-21.5-48q0-24 9.5-40.5t24.5-26t33-14t35-4.5q35 0 72.5 8t61.5 20l12-107q-35-12-74.5-18t-81.5-6q-53 0-95.5 14.5t-72.5 40.5t-46 63t-16 82q0 54 21.5 88t53.5 55.5t69.5 35.5t69.5 28t53.5 32.5t21.5 49.5q0 22-11.5 38t-28.5 26t-38 15t-39 5q-38 0-78-9.5t-71-27.5l-12 118q24 6 43 10.5t38 7.5t40 4.5t48 1.5q54 0 99-14t77.5-40t50.5-62.5t18-82.5zM1427,544q0-92-49-145t-143-53q-43 0-73.5 15.5t-54.5 49.5l-3-1q2-37 11-73.5t27.5-65.5t48-47t72.5-18q32 0 59 8t53 19l18-106q-68-24-138-24q-79 0-131 33.5t-83 86.5t-43.5 120t-12.5 133q0 57 9 112t34 98t69 69t113 26q109 0 163-64.5t54-172.5zM1295,566q0 22-5 43t-15.5 38t-26.5 27.5t-38 10.5q-26 0-43.5-9.5t-28-26t-15.5-37.5t-5-44q0-25 4.5-47.5t15-39.5t27.5-27.5t42-10.5q23 0 39.5 10t27.5 27.5t16 39.5t5 46z"/>
</svg>